<svg viewBox="0 0 201 200" xmlns="http://www.w3.org/2000/svg" fill-rule="evenodd" clip-rule="evenodd" stroke-linecap="round" stroke-linejoin="round" stroke-miterlimit="1.5">
  <path fill="none" d="M.105 0h200v200h-200z"/>
  <g fill="none" stroke="#000" stroke-width="2.08">
    <path d="M101.668 81.327h3.14s.885-1 1.326-1c.442 0 1.322 1 1.322 1M134.456 89.327h-6.141s-.885-1-1.326-1c-.441 0-1.321 1-1.321 1M144.456 89.327h-7.141s-.885-1-1.326-1c-.441 0-1.321 1-1.321 1M186.456 86.327h-8.141s-.885-1-1.326-1c-.441 0-1.321 1-1.321 1M189.315 86.327s-.885-1-1.326-1c-.441 0-1.321 1-1.321 1M153.456 89.327h-6.141s-.885-1-1.326-1c-.441 0-1.321 1-1.321 1M162.456 89.327h-6.141s-.885-1-1.326-1c-.441 0-1.321 1-1.321 1M175.093 86.327c-.415-.333-1.246-1-1.886-1-.639 0-1.236.85-1.951 1-.792.167-2.8 0-2.8 0l-3.141 3s-.885-1-1.326-1c-.441 0-1.321 1-1.321 1M194.093 86.327c-.415-.333-1.246-1-1.886-1-.639 0-1.514.667-1.951 1M107.668 81.327h6.14s.885-1 1.326-1c.442 0 1.322 1 1.322 1s2.96-2 4.337-2c1.376 0 3.919 2 3.919 2v9.548M194.648 86.975v2.808h2.527v1.519h-2.432v38.685M170.506 92.769v34.044-6.265h-44.061v2.861l6.65 6.65h-32.016"/>
    <g>
      <path d="M100.586 81.327h-3.14s-.885-1-1.327-1c-.441 0-1.321 1-1.321 1M67.798 89.327h6.141s.885-1 1.326-1c.441 0 1.321 1 1.321 1M57.798 89.327h7.141s.885-1 1.326-1c.441 0 1.321 1 1.321 1M15.798 86.327h8.141s.885-1 1.326-1c.441 0 1.321 1 1.321 1M12.939 86.327s.885-1 1.326-1c.441 0 1.321 1 1.321 1M48.798 89.327h6.141s.885-1 1.326-1c.441 0 1.321 1 1.321 1M39.798 89.327h6.141s.885-1 1.326-1c.441 0 1.321 1 1.321 1M27.161 86.327c.415-.333 1.246-1 1.885-1 .64 0 1.236.85 1.952 1 .791.167 2.8 0 2.8 0l3.141 3s.885-1 1.326-1c.441 0 1.321 1 1.321 1M8.161 86.327c.415-.333 1.246-1 1.885-1 .64 0 1.514.667 1.952 1M94.586 81.327h-6.14s-.885-1-1.327-1c-.441 0-1.321 1-1.321 1s-2.961-2-4.337-2-3.919 2-3.919 2v9.548M7.605 86.975v2.808H5.079v1.519h2.432v38.685M31.747 92.769v34.044-6.265h44.061v2.861l-6.649 6.65h32.016"/>
    </g>
    <path d="M108.122 97.573h5.204v24.106h-5.204zM99.122 97.573h5.204v24.106h-5.204zM90.122 97.573h5.204v24.106h-5.204z"/>
  </g>
</svg>
