<svg viewBox="0 0 201 200" xmlns="http://www.w3.org/2000/svg" fill-rule="evenodd" clip-rule="evenodd" stroke-linecap="round" stroke-linejoin="round" stroke-miterlimit="1.5">
  <path fill="none" d="M.609 0h200v200h-200z"/>
  <g fill="none" stroke="#000" stroke-width="2.08">
    <path d="M123.212 68.013s12.921 38.776 12.904 38.774c-12.06-1.382-15.926-1.429-25.807 0-.005 0 12.903-38.774 12.903-38.774zM95.948 97.004s3.356 12.62 3.351 12.62c-3.132-.45-4.136-.465-6.702 0-.002 0 3.351-12.62 3.351-12.62zM172.853 84.407s11.732 35.211 11.717 35.21c-10.951-1.255-14.461-1.297-23.435 0-.004 0 11.718-35.21 11.718-35.21zM136.522 107.172l3.776 2.695v3.81l-1.863 7.76v66.307M184.816 119.709l1.777.695v3.81l-1.864 7.76v56.307M109.831 107.172l-3.777 2.695v3.81l1.864 7.76v66.307M92.747 110.089v11.509l3.339 21.33M99.41 110.089v11.509l-3.338 21.131M107.74 101.682l-9.456 2.587M93.645 105.538l-17.42 4.766M66.771 122.93l9.776-12.939M111.421 101.483l-3.431.509 2.478 3.565"/>
    <path d="M167.288 175.003v-50.255l-5.166-1.406v-2.516l-3.364-1.174v-6.929l-3.516-.658-.864-9.662-4.126-1.081.131 9.379-4.206-1.168v7.505l-3.582-1.125v3.597M92.333 118.417l-29.856 5.303M45.093 127.589l-18.525 3.082M79.63 108.606l-.685-31.04 2.038-5.434.169-10.852-21.042-7.347-.223 64.282"/>
    <path d="M60.577 54.119l-14.444 6.564v10.331l1.771 5.249v39.822l-9.303 2.299-8.244 10.771"/>
    <path d="M26.48 130.221l-1.668-2-8.884 1L28.62 99.316l7.702 21.504M24.812 128.221v54.928M62.375 123.894v58.377M45.807 127.141v57.173M108.096 174.017s16.418-2.579 30.837.204"/>
    <path d="M16.03 129.19v-1.541h-2.811v11.497l2.898 2.376v41.037M50.111 157.803l7.134-.831v-13.25s-.449-3.139-3.806-6.564c-.719-.733-2.966 4.98-2.884 6.758M50.554 144.08l-.536 13.641M142.694 120.081l-3.652-1.043M75.312 58.217l-.174-12.428 1.31-2-.391-5.163 2.304-1.913-14.597-26.6L52.379 34.35l-3.211 2.266 2.081 1.511-.299 5.504 1.076 1.636V56.51"/>
    <path d="M61.686 54.069V30.574l16.409 6.205M61.475 30.686l-8.129 3.229"/>
  </g>
</svg>
