<svg viewBox="0 0 201 200" xmlns="http://www.w3.org/2000/svg" fill-rule="evenodd" clip-rule="evenodd" stroke-linecap="round" stroke-linejoin="round" stroke-miterlimit="1.5">
  <path fill="none" d="M.526 0h200v200h-200z"/>
  <clipPath id="a">
    <path d="M.526 0h200v200h-200z"/>
  </clipPath>
  <g fill="none" stroke="#000" stroke-width="2.08" clip-path="url(#a)">
    <path d="M8.775 76.22l21.958-21.748 42.516-16.333h27.231"/>
    <path d="M77.722 38.139l-.08-7.896h5.401v7.58M9.273 76.847l4.466 3.179v96.156"/>
    <path d="M8.775 76.22l21.958-21.748 42.516-16.333h27.231"/>
    <path d="M77.722 38.139l-.08-7.896h5.401v7.58M9.273 76.847l4.466 3.179v96.156M192.263 76.22l-21.959-21.748-42.515-16.333h-27.232"/>
    <path d="M123.315 38.139l.08-7.896h-5.4v7.58M191.764 76.847l-4.466 3.179v96.156"/>
    <path d="M192.263 76.22l-21.959-21.748-42.515-16.333h-27.232"/>
    <path d="M123.315 38.139l.08-7.896h-5.4v7.58M191.764 76.847l-4.466 3.179v96.156M14.507 80.593h173.132M56.593 81.504l.573 95.792M85.577 81.504l.573 95.792M117.781 81.504l.574 95.792M146.765 81.504l.574 95.792M25.998 81.504l.574 95.792M182.19 81.504l.574 95.792M48.542 81.504l.573 95.792M77.526 81.504l.573 95.792M109.73 81.504l.574 95.792M138.714 81.504l.574 95.792M17.947 81.504l.574 95.792M174.139 81.504l.574 95.792M86.149 146.411l11.974-6.021M110.044 146.411l-11.885-6.021M9.723 75.509h182.026M73.042 74.459l12.433-12.434 1.431-7.322 10.43-6.895"/>
    <path d="M121.489 74.459l-12.433-12.434-1.431-7.322-10.43-6.895M97.624 37.683V.87M96.785 4.265s-8.164 9.17-6.291 10.221c1.873 1.05 1.102 4.908-.998 6.501s2.626 4.254 1.943 5.846c-.682 1.592-.752-3.938 1.977-4.909 2.73-.971 3.151-4.454 3.151-4.454M90.564 174.875h16.433v-12.942s-2.858-7-8.657-7c-5.056 0-7.776 7-7.776 7M90.564 174.875v-12.942"/>
  </g>
</svg>
