<svg viewBox="0 0 201 200" xmlns="http://www.w3.org/2000/svg" xmlns:serif="http://www.serif.com/" fill-rule="evenodd" clip-rule="evenodd" stroke-linecap="round" stroke-linejoin="round" stroke-miterlimit="1.5">
  <path serif:id="linkoping" fill="none" d="M.277 0h200v200h-200z"/>
  <g fill="none" stroke="#000" stroke-width="2.08">
    <path d="M72.813 147.915H1.895V70.693H51.14l17.846 42.943M89.066 111.01h9.385M69.519 113.897v13.14M55.619 140.47h15.966M78.628 140.47h14.705M88.778 114.407v24.65M51.076 71.097v75.427"/>
    <path d="M51.242 70.837L25.31 57.61 2.378 70.566M97.445 147.992v-16.993h-4.37v9.472M97.872 130.653l1.551-.754-3.832-2.174M93.142 130.653l-1.551-.754 3.832-2.174M55.553 140.371v-10.146h-3.94M90.408 111.147s.119-8.043 5.575-8.565M66.461 106.862h6.696M96.207 101.972l-.775-1.103 1.276-.862M98.193 90.564c-1.339.379-2.059 3.36-2.059 3.36l.745.744v5.172M138.618 147.915h57.805V70.693h-49.245l-17.845 42.943h-5.334M120.602 113.636h-9.975l1.626-2.626H99.868M128.799 113.897v8.282M130.733 140.47h-10.411M142.733 140.47h-4.509M109.541 114.407v31.817M147.243 71.097v30.497M147.243 115.311v31.571"/>
    <path d="M147.077 70.837l25.931-13.227 22.933 12.956M115.874 147.992v-16.993h4.369v9.472M115.446 130.653l-1.551-.754 3.833-2.174M120.176 130.653l1.552-.754-3.833-2.174M142.766 140.371v-10.146h3.94M107.911 111.147s-.119-8.043-5.576-8.565M131.858 106.862h-24.759M102.111 101.972l.776-1.103-1.277-.862M100.125 90.564c1.339.379 2.059 3.36 2.059 3.36l-.744.744v5.172M77.221 147.923h19.915M116.162 148.3h17.328M68.197 125.75s.361-7.273-2.624-8.767c-2.984-1.493-7.984.231-8.318-5.189-.333-5.419 1.161-10.737-.912-11.07"/>
  </g>
  <g serif:id="Layer10" fill="none" stroke="#000" stroke-width="2.08">
    <path d="M139.331 156.389s-1.894-10.688-2.137-11.173c-.242-.484 2.094-12.303 3.336-14.483 1.242-2.18 3.365-13.868 5.831-14.905 2.466-1.038 3.87-4.385 7.186-8.285 3.317-3.9 4.316-12.385 8.036-13.378 3.721-.993 12.21-6.602 12.21-7.596"/>
    <path d="M153.609 88.327s-1.372 4.757-2.217 8.751c-.845 3.993-4.857 15.669-4.857 15.669l3.419-.425"/>
    <path d="M139.107 126.826s6.509-14.222 6.658-16.638c.149-2.415 3.13-12.346 3.13-13.371 0-1.025-.216-9.192 3.951-12.409 4.167-3.217 10.421-6.155 10.719-8.434M154.213 83.408s-2.237-18.327-.815-19.805M139.027 127.242s1.441-15.793 1.143-17.073c-.299-1.279 3.814-28.407 3.024-30.984-.789-2.578 2-7.534 3.428-10.167 1.429-2.633-.838-7.887.547-9.272"/>
    <path d="M122.612 83.352c-.248 4.763 1.441 10.875 2.777 15.142 1.335 4.266 4.409 7.502 5.9 11.222 1.49 3.719 5.831 13.483 5.831 13.483s1.069-13.21 3.385-15.986M135.17 156.332s-1.242-9.341-2.229-11.117c-.988-1.776-6.105-13.955-6.105-16.582 0-2.627.099-4.559-2.634-6.9-2.732-2.341-16.457-13.768-20.768-14.067-4.31-.298-8.956-1.099-10.198-.298"/>
    <path d="M122.726 120.488s-2.07-6.463-2.07-8.984.889-3.757-1.335-6.328-5.509-8.54-7.285-8.54c-1.776 0-7.546-8.092-8.875-9.682"/>
    <path d="M116.787 101.744s3.676 5.171 2.242-6.648c-1.434-11.818-2.534-10.831-2.236-15.955.298-5.124 1.491-6.353 1.193-8.539"/>
    <path d="M119.324 98.32s4.488 6.62 4.494 9.148c.006 2.527-.044 10.825 2.092 11.713 2.137.888 5.454 10.242 5.752 13.11.298 2.869 2.633 11.112 2.633 7.441 0-3.671 5.093-8.211-2.925-28.65"/>
  </g>
  <g fill="none" stroke="#000" stroke-width="2.08">
    <path d="M76.813 155.96c0-2.342-.313-5.772 0-7.906.312-2.135 3.794-13.875 3.644-16.244-.15-2.369-.098-9.748.937-11.096 1.035-1.347 4.003-4.158 5.929-7.907 1.926-3.748 3.956-9.416 4.842-10.926.885-1.51 1.217-.683 4.647-6.144M91.107 104.164s1.461-11.602 3.231-16.067"/>
    <path d="M81.843 120.265c0-5.512.417-5.655.417-12.053 0-6.397 3.488-5.773 3.748-10.25.261-4.476 1.087-8.271 2.962-8.427 1.874-.156 2.525-3.201 5.544-11.376"/>
    <path d="M85.104 91.227c-2.812 6.228-2.663 9.26-3.905 12.065-1.243 2.805-2.278 9.99-2.278 13.842 0 3.853-1.881 15.216-2.603 13.387-.722-1.828.261-13.172.521-22.947.26-9.774-.521-12.533 2.082-19.711 2.604-7.179 2.135-8.948 2.135-12.489M72.409 139.919c0-5.096-1.978-5.512-1.197-11.604.781-6.091 2.447-4.426.781-11.141-1.666-6.716 2.851-7.113.573-11.278-2.279-4.166.839-5.948-1.653-10.094"/>
    <path d="M71.607 155.817c-.313-3.117 3.17-9.11 1.249-11.499-1.92-2.389-1.197-12.489-2.44-14.044-1.244-1.555-1.628-3.287-2.805-5.298M73.884 121.566c.104 3.053.202 5.897 1.608 6.411"/>
  </g>
</svg>
