<svg viewBox="0 0 201 200" xmlns="http://www.w3.org/2000/svg" fill-rule="evenodd" clip-rule="evenodd" stroke-linecap="round" stroke-linejoin="round" stroke-miterlimit="1.5">
  <path fill="none" d="M.208 0h200v200h-200z"/>
  <g fill="none" stroke="#000" stroke-width="2.08">
    <path d="M94.018 4.899s21.507 168.569 18.556 188.033c-2.95 19.464 12.552-158.589.901-187.441M83.159 194.077c-3.695-23.737-1.928-183.545-1.928-183.545s6.753 131.848 17.694 183.012"/>
    <path d="M81.609 10.239l13.23-5.927 18.389.711"/>
    <path d="M95.709 6.008l20.519 18.171-18.665-.927 20.318 18.955-18.318-.494 17.665 21.723-15.041-2.014 14.853 21.346-12.463-.74 11.593 22.144-9.912-1.653 9.753 22.621-6.463-1.768 4.739 22.332-3.449.449M81.666 145.414l9.941-2.189 18.129.798M81.898 123.866l7.754-1.87 17.635.319M82.145 103.084l6.434-3.201 16.694.333M81.666 82.362l5.305-2.058 16.013-.796M81.42 63.509l4.029-2.637 14.781-.841M84.536 42.526l13.795-1.87M83.363 24.643l12.448-2.362M81.77 167.035l13.056-.456 18.542-.036"/>
  </g>
</svg>
