<svg viewBox="0 0 201 200" xmlns="http://www.w3.org/2000/svg" fill-rule="evenodd" clip-rule="evenodd" stroke-linecap="round" stroke-linejoin="round" stroke-miterlimit="1.5">
  <path fill="none" d="M.164 0h200v200h-200z"/>
  <g fill="none" stroke="#000">
    <path d="M144.569 161.518v4.382l-28.554 9.164-78.431 4.331-23.683-3.783V52.494l-2.116-13.897 25.78-10.434 82.151 16.245 23.867 23.142-2.086 2.16v90.615M117.181 46.278v121.915M100.472 42.219v122.858M83.894 39.814v122.017" stroke-width="2.08"/>
    <path d="M64.316 34.959v126.466l-10.735 8.266M69.019 162.057l-4.703-.632M24.422 36.293l2 131.582M125.31 54.105v113.394M137.119 62.929v100.482M164.291 93.374l-1.855 94.063M169.436 93.374l1.855 94.063M164.304 93.099s1.865-.767 2.779-.779c.914-.012 2.706.706 2.706.706M163.124 187.954s2.486 1 3.898 1c1.413 0 4.579-1 4.579-1" stroke-width="2.08"/>
    <path d="M33.373 169.384l4.861 1.566 21.744-.363 10.016-7.858h17.585M88.074 164.053l3.887-.191v1.169l4.382-.343v1.348l4.069-.592v1.005l4.069-.522v1.091l4.013-.348v.831h3.991v.852h4.413l7.236.178 22.216-7.913h-4.73M33.365 169.868l-18.948-2.311M119.963 43.609s-10.137-3.101-17.622-15.354M102.522 27.545L46.759 16.734v-1.673l-4.26-.681-2.978.927v2.173M42.774 14.437s-2.021 13.666-5.267 13.84M17.907 29.27l1.218-4.283 1.623 3.695M20.595 24.306s2.304 1.333.696 1.732c-1.608.398 2.21 2.13.478 2.297M22.298 24.045l1.428-1.08v2.073M27.131 25.625l-1.797.645-.449-3.087 1.557-1.145M26.718 22.263l3.463-1.565M27.109 21.792l.413 3.137M28.573 23.69l1.797-.753M31.268 20.784l1.42-.905M31.66 23.342v-2.463M35.072 18.915s-3.036 1.804-1.369 2.377c1.666.572.84 2.586-.899 2.76" stroke-width="2.08"/>
    <path d="M19.327 31.762l13.854-5.08" stroke-width="3.96"/>
    <path d="M40.014 18.421l-4.282.289" stroke-width="2.08"/>
  </g>
</svg>
