<svg viewBox="0 0 201 200" xmlns="http://www.w3.org/2000/svg" fill-rule="evenodd" clip-rule="evenodd" stroke-linecap="round" stroke-linejoin="round" stroke-miterlimit="1.5">
  <path fill="none" d="M.496 0h200v200h-200z"/>
  <g fill="none" stroke="#000" stroke-width="2.08">
    <path d="M193.591 149.91v-44.49l1.9-1.9V92.455s2.935-2.304.665-3.269c-2.269-.965-29.98-7.47-60.803 4.652M136.484 134.921v-25.78l-.209-3.418v-9.998s-2.147-.339-1.06-1.591M191.951 87.387s-24.85-12.52-54.396 4.586M187.528 84.333l-.081-3.027"/>
    <path d="M143.712 88.164v-3.853s-1.397-1.517-.19-2.592c1.207-1.076 16.254-8.352 43.659-3.902M187.719 80.92s.995-1.88-.538-3.103M186.344 77.203l-2.657-9.168s-7.521-6.706-11.336-7.178M144.816 80.346l2.956-9.999s3.793-5.993 9.901-8.509M172.177 60.805s-5.401-3.353-14.504 1.033M172.014 60.006l-.087-4.765M157.668 61.332v-4.456l-1.033-1.13M172.443 54.833l.854-.984s-7.657-3.374-16.852 1.315M171.738 53.335s.874-5.327-6.462-9.42M157.679 54.17s-1.348-6.217 7.597-10.255M166.634 43.127s-1.956-3.7-3.336.761M164.803 41.702V18.019"/>
    <path d="M151.684 65.014v-2.972l-3.988.13V58.57l-4.375.26v-3.543l-3.114.027-.125-4.168-4.027.653v4.069l-3.494.522v3.581l-4.038.783v3.614l-3.358.527v4.336l-3.549.386s.253 66.651 0 66.651"/>
    <path d="M129.116 62.214l-67.901 10.38-18.324 13.123M121.264 78.538l-77.449 8.57M52.616 135.229s-1.115-28.856-1-30.905c.114-2.049 1.1-1.96 1.1-1.96s-17.536-5.815-44.333-.914"/>
    <path d="M9.41 145.109l.272-41.365s-.234-2.554-1.478-2.429M9.459 100.581l5.299-3.342s17.389-4.233 30.458 0M49.907 101.217l-4.691-3.978"/>
    <path d="M45.722 96.408l.261-2.37s-14.624-5.809-31.204-1.13M14.937 96.69l-.087-4.108M15.932 91.49s1.124-6.658 6.646-9.185c5.521-2.526 6.108-4.347 6.977-5.874.87-1.527 1.565-4.559 1.565-4.559M45.26 92.386s-2.32-8.086-5.043-9.341c-2.722-1.256-9.059-6.783-9.32-10.119M31.153 71.247V59.878M71.363 69.951l.125-2.929 2.109-.257.087 2.762M89.78 67.44l.125-2.929 2.109-.257.086 2.762M111.031 64.373l.125-2.929 2.109-.257.086 2.762M142.162 146.768s.793-8.281-2.695-10.879c-3.488-2.598-8.793-3.88-10.52-2.598-1.728 1.283-1.956 5.033-6.391 3.033-4.435-2-7.836-2.533-10.955-2-3.119.533-6.26 1.033-7.978.533-1.717-.5-7.337-1.793-7.587-.5s-3.629 1.13-6.216 1.13-1.585 2.467-4.702 2.154c-3.117-.312-10.694-.904-11.664-.76-.969.143-4.661-.865-6.53-1.865-1.869-1-9.169-1.135-10.586-.792-1.417.344-4.003 1.643-6.077.209s-7.183.852-7.808.026c-.626-.826-2.43 1.322-3.991 1.322s-3.939 9.481-1.917 9.107c2.021-.373 21.311 1.905 23.871.801 2.561-1.105 15.946.108 18.242.113 2.295.004 37.49 3.234 38.946 1.647 1.457-1.586 9.717-1.621 10.93-1.204 1.213.418 9.485 1.907 13.628.523z"/>
  </g>
</svg>
