<svg viewBox="0 0 1330 217" xmlns="http://www.w3.org/2000/svg" fill-rule="evenodd" clip-rule="evenodd" stroke-miterlimit="10">
  <path fill="none" d="M0 0h1326v213.767H0z"/>
  <clipPath id="a">
    <path d="M0 0h1326v213.767H0z"/>
  </clipPath>
  <g clip-path="url(#a)">
    <path d="M296.666 118.358h-32.083v60h-9.584V5.858h45.417c13.333 1.667 24.167 7.084 33.75 16.667 10.833 11.25 16.667 24.167 16.667 40 0 15.833-5.417 28.75-16.667 40-7.5 7.5-16.25 12.5-26.25 15l40 61.25h-12.083l-39.167-60.417zm-32.5-102.916v92.916h29.167c12.916 0 23.75-4.583 32.916-13.75 9.167-9.166 13.75-20 13.75-32.916 0-12.917-4.583-23.75-13.75-32.917-9.166-9.167-20-13.75-32.916-13.75h-29.167v.417zM370.416 116.692c-.417 1.666-.417 3.333-.417 5.416 0 13.334 4.584 25 14.167 34.584 9.583 9.583 21.25 14.166 34.583 14.166 13.334 0 25-5 34.584-14.583 1.666-1.667 3.333-3.333 4.583-5l10.417 3.75c-1.25 2.083-3.75 5-7.5 8.75-11.667 11.667-25.417 17.5-42.084 17.5-16.25 0-30.416-5.833-41.666-17.5-11.25-11.667-17.5-25.417-17.5-41.667s5.833-30.416 17.5-42.083c11.666-11.667 25.416-17.5 41.666-17.5 16.25 0 30.417 5.833 42.084 17.5 10 10.417 15.416 22.5 15.416 36.667H370.416zm2.083-10h92.917c-2.083-7.5-6.25-13.75-11.667-19.167-9.583-9.583-21.25-14.583-34.583-14.583-13.333 0-25 5-34.583 14.583-5.834 5.833-10 12.083-12.084 19.167zM550.833 72.108l-26.25 32.5 41.666 73.75h-12.083l-35.833-65.833-9.584 11.667v54.166h-9.583V27.525h9.583v81.25l29.584-36.25h12.5v-.417zM627.916 62.942c16.25 0 30.417 5.833 42.083 17.5 11.667 11.666 17.084 25.416 17.084 42.083 0 16.25-5.834 30.417-17.084 41.667-11.666 11.666-25.416 17.5-42.083 17.5-16.25 0-30.417-5.834-41.667-17.5-11.25-11.667-17.5-25.417-17.5-41.667s5.834-30.417 17.5-42.083c11.667-12.084 25.417-17.5 41.667-17.5zm-34.583 24.583c-9.584 9.583-14.167 21.25-14.167 34.583 0 13.334 4.583 25 14.167 34.584 9.583 9.583 21.25 14.166 34.583 14.166 13.333 0 25-4.583 34.583-14.166 9.584-9.584 14.167-20.834 14.167-34.584 0-13.333-4.583-25-14.167-34.583-9.583-9.583-21.25-14.583-34.583-14.583-13.333 0-25 5-34.583 14.583z" fill-rule="nonzero"/>
    <path d="M913.333 10.025c6.25 5.417 9.166 12.5 9.166 20.833 0 11.25-5 21.25-15.416 29.584-9.584 7.916-20 12.083-31.667 12.083h-37.917l-13.333 68.333c-2.083 10.834-8.333 20.417-18.333 27.917-10 7.5-21.25 11.667-33.334 11.667-10.833 0-19.583-2.917-26.25-9.167-7.083-6.25-10.416-13.75-10.416-23.333 0-2.5.416-4.584.833-7.084l13.333-68.333h-37.916c-9.584 0-17.5-2.917-23.75-8.333-6.25-5.417-9.167-12.5-9.167-20.834 0-11.25 5-21.25 15.417-29.583 9.583-7.917 20-11.667 31.666-11.667h162.917c10 0 17.917 2.5 24.167 7.917zM1050 64.608l-17.5 88.75c-1.666 7.5-5.416 13.75-12.5 18.75-6.666 5-14.166 7.917-22.5 7.917-4.166 0-8.333-1.25-12.083-4.167-4.167-2.916-6.667-5.833-7.917-10-12.916 10-26.666 15-41.666 15-14.167 0-25.834-4.166-35.417-12.916-10-9.167-15-20.417-15-35 0-3.75.417-7.917 1.25-11.667 3.333-16.667 12.5-30.833 27.083-42.083 13.75-10.417 28.334-15.834 43.334-15.834 13.75 0 24.166 4.584 30.833 14.167l2.5-12.917H1050zm-69.583 56.667c1.25-5.833-4.167-9.167-15.833-9.167-4.167 0-7.917.834-11.25 2.5-3.334 1.667-5.417 3.75-5.834 6.25-.416 2.5.834 4.584 3.334 6.25 2.5 1.667 6.25 2.5 10.833 2.5 11.25.417 17.5-2.5 18.75-8.333zM1202.92 150.025c0 8.333-3.75 15.417-10.833 21.667-7.084 6.25-15.417 9.583-24.584 9.583-7.083 0-12.916-2.083-17.5-6.25l-20.416-17.917-27.5 17.917c-6.25 4.167-12.917 6.25-20 6.25-9.167 0-16.25-3.333-20.834-9.583-2.5-3.75-4.166-7.917-4.166-12.5 0-10 5-18.334 15-25l17.916-12.084-13.333-11.666c-4.583-4.167-7.083-9.584-7.083-15.834 0-7.916 3.75-15.416 10.833-21.666s15.417-9.584 24.583-9.584c7.084 0 13.334 2.084 17.917 6.25l20.417 17.917 27.5-17.917c6.25-4.166 12.916-6.25 20.416-6.25 9.167 0 16.25 3.334 20.834 9.584 2.5 3.333 4.166 7.5 4.166 12.5 0 10-5 18.75-15 25l-17.916 11.666 13.333 12.084c3.75 4.166 6.25 9.583 6.25 15.833zM1317.92 77.942l-15 75.833c-1.667 7.5-5.833 13.75-12.5 18.75s-14.167 7.917-22.5 7.917c-7.083 0-13.333-2.084-17.917-6.25-4.583-4.167-7.083-9.584-7.083-15.417 0-1.667 0-3.333.417-4.583l5.416-28.334c-5.833-.416-10.416-2.5-14.166-6.25s-5.417-7.916-5.417-13.333c0-7.5 3.333-14.167 10-20 6.25-5.417 13.333-8.333 21.25-8.333h57.5zm-46.25-30c-4.583-4.167-6.667-9.167-6.667-15.417 0-8.333 3.75-15.833 11.25-21.667 7.084-5.833 15-8.75 23.334-8.75 7.083 0 12.916 2.084 17.5 6.25 4.583 4.167 6.666 9.167 6.666 15.417 0 8.333-3.75 15.417-10.833 21.667-7.083 5.833-15 9.166-23.75 9.166-6.667-.416-12.917-2.5-17.5-6.666z" fill="#8f4c98" fill-rule="nonzero" stroke="#603265" stroke-width="4.17"/>
    <path fill="#8f4c98" stroke="#603265" stroke-width="4.17" d="M2.083 5.025h68.75v68.75H2.083zM139.583 142.942h68.75v68.75h-68.75zM70.833 74.192h68.75v68.75h-68.75zM139.583 5.025h68.75v68.75h-68.75z"/>
  </g>
</svg>
