<svg viewBox="0 0 200 200" xmlns="http://www.w3.org/2000/svg" xmlns:serif="http://www.serif.com/" fill-rule="evenodd" clip-rule="evenodd" stroke-linecap="round" stroke-linejoin="round" stroke-miterlimit="1.5">
  <path fill="none" d="M0 0h200v200H0z"/>
  <clipPath id="a">
    <path serif:id="stockholm" d="M0 0h200v200H0z"/>
  </clipPath>
  <g fill="none" stroke="#000" stroke-width="2.08" clip-path="url(#a)">
    <path d="M184.582 118.208l-1.681 5.371.448.425s.944 2.916-.454 3.025c-1.398.109-1.34 1.278-1.34 1.278l-.052 1.956-1.104.868-1.015.483 1.347.918-.01 10.918-9.345-8.295-42.345-2.712-1.611-66.687 2.84-1.848s-12.347-1.747-12.636-4.398c-.29-2.652-.259-1.749-.259-1.749l1.623-1.093-.089-3.183-.949-.672.072-1.779-1.545-.692-.172-1.24-1.302-.351-.267-16.469s2.371-2.251 3.455-2.473c1.084-.223.087-1.912.087-1.912l-3.097-1.229s-1.455-1.242-1.455-1.95-2.043-.441-2.117.483c-.074.924-2.854-2.876-2.46-3.706.394-.83.04-3.091 1.765-4.104.751-.441.041-2.329.041-2.329s-2.847-3.207-2.847-3.652V9.382s1.206-.818-.265-1.921c-.365-.274-.196-1.333-.196-1.333"/>
    <path d="M13.691 142.919c1.864-.353 3.523-5.764 3.523-5.764l69.344-4.712 1.611-66.687-2.84-1.848s12.347-1.747 12.637-4.398c.289-2.652.258-1.749.258-1.749l-1.622-1.093.089-3.183.948-.672-.071-1.779 1.544-.692.172-1.24 1.302-.351.267-16.469s-2.371-2.251-3.455-2.473c-1.084-.223-.086-1.912-.086-1.912l3.096-1.229s1.455-1.242 1.455-1.95 2.044-.441 2.117.483c.074.924 2.854-2.876 2.46-3.706-.394-.83-.039-3.091-1.765-4.104-.75-.441-.04-2.329-.04-2.329s2.847-3.207 2.847-3.652V9.382s-1.207-.818.264-1.921c.366-.274.196-1.333.196-1.333M184.592 118.208l1.68 5.371-.447.425s-.944 2.916.454 3.025c1.398.109 1.34 1.278 1.34 1.278l.051 1.956 1.104.868 1.015.483-1.347.918.011 14.662 1.324.973-1.275.259v31.006M107.023 61.727v115.902M13.68 143.116s-.956.591-.853-1.797c.069-1.618-.091-7.875-.091-7.875s-3.224.258-1.9-3.406c.788-2.178-1.352-3.055-1.352-3.055"/>
    <path d="M11.838 149.612v27.885s-3.928.512-3.987.351c-1.928-5.226-3.328-.028-3.328-.028H3.488s-1.071-29.49 0-29.821c1.071-.331 1.996-4.883 1.996-4.883s.955.591.853-1.797c-.07-1.618.09-7.875.09-7.875s3.225.258 1.901-3.406c-.788-2.178 1.352-3.055 1.352-3.055M9.612 127.011v-11.377M105.612 37.628h4.113v10.011h-4.113z"/>
  </g>
</svg>
