<svg viewBox="0 0 201 200" xmlns="http://www.w3.org/2000/svg" fill-rule="evenodd" clip-rule="evenodd" stroke-linecap="round" stroke-linejoin="round" stroke-miterlimit="1.5">
  <path fill="none" d="M.195 0h200v200h-200z"/>
  <g fill="none" stroke="#000" stroke-width="2.08">
    <path d="M33.77 47.36l2.608-18.11 5.454 41.605 1.667-1.668v10.851l1.394 1.393h-1.375v5.466l2.12 13.604.541 14.008.937 1.719v10.508l.448 1.925v9.079h63.626v-27.536l2.696 4.025 3.391-38.743M13.698 171.389v-2.08l.896-.827v-13.278l1.014-1.432v-14.165l1.034-3.81v-9.255l1.015-2.216s-.088-10.936 0-10.938c.837-.011 1.725-2.602 1.725-2.602l.349-6.587 3.066-22.452-.507-4.247V65.501h1.054v1.749l.937-.135 6.04-43.902 10.227 80.561M178.432 153.308l-6.005.348h-40.496v-1.246l.831-.831-4.943-2.082-3.743 1.494-8.291-13.013"/>
    <path d="M40.545 104.11v9.311l1.107 1.377v11.11l.55 1.562v9.963l.588 2.843v13.38h56.496v-1.246l-.831-.831 4.943-2.082 3.743 1.494 8.291-13.013M28.559 98.049l4.073 14.835h-8.146l4.073-14.835zM192.718 174.845v-5.81l-1.26-1.26h-2.259l-1.367 1.366s.111 1.041 0 1.04c-7.514-.076-9.405-9.404-9.405-9.404v-6.415l.802-1.198-2.425-.942-6.619-14.482h-46.649v-27.536l-2.696 4.025-3.391-38.743"/>
    <circle cx="115.606" cy="146.575" r="2.579"/>
  </g>
</svg>
